<svg xmlns="http://www.w3.org/2000/svg" viewBox="0 0 384 512">
    <defs>
        <mask id="highlight-mask">
            <rect width="100%" height="100%" fill="white" />
            <path d="M 90 176 A 102 102 0 0 1 176 90" stroke="black" stroke-width="28" stroke-linecap="round" fill="none" />
        </mask>
    </defs>
    <path fill="#2B303A" mask="url(#highlight-mask)" d="M272 384c9.6-31.9 29.5-59.1 49.2-86.2l0 0c5.2-7.1 10.4-14.2 15.4-21.4c19.8-28.5 31.4-63 31.4-100.3C368 78.8 285.5 0 192 0S16 78.8 16 176c0 37.3 11.6 71.9 31.4 100.3c5 7.2 10.2 14.3 15.4 21.4l0 0c19.8 27.1 39.7 54.4 49.2 86.2H272zM192 512c44.2 0 80-35.8 80-80V416H112v16c0 44.2 35.8 80 80 80z"/>
</svg>
